<?xml version="1.0" encoding="UTF-8"?>
<!DOCTYPE svg PUBLIC "-//W3C//DTD SVG 1.1//EN" "http://www.w3.org/Graphics/SVG/1.1/DTD/svg11.dtd">
<svg xmlns="http://www.w3.org/2000/svg" version="1.1" width="1200px" height="897px" style="shape-rendering:geometricPrecision; text-rendering:geometricPrecision; image-rendering:optimizeQuality; fill-rule:evenodd; clip-rule:evenodd" xmlns:xlink="http://www.w3.org/1999/xlink">
<g><path style="opacity:0.995" fill="#e33616" d="M 999.5,618.5 C 1005.02,590.744 1011.02,563.077 1017.5,535.5C 1012.63,528.953 1006.63,527.786 999.5,532C 979.853,541.658 959.853,550.491 939.5,558.5C 936.634,570.965 933.301,583.298 929.5,595.5C 915.443,637.557 888.777,668.89 849.5,689.5C 852.666,731.338 837.666,765.171 804.5,791C 769.042,817.458 729.709,825.958 686.5,816.5C 710.009,793.173 730.675,767.673 748.5,740C 709.147,744.36 669.647,747.194 630,748.5C 626.069,748.456 622.402,747.789 619,746.5C 616.562,717.816 624.562,692.483 643,670.5C 656.808,654.871 672.974,642.538 691.5,633.5C 705.399,628.086 719.732,624.253 734.5,622C 750.959,620.827 767.293,621.66 783.5,624.5C 795.554,628.192 806.887,633.526 817.5,640.5C 833.183,635.176 846.183,626.176 856.5,613.5C 857.167,613.5 857.5,613.167 857.5,612.5C 865.772,603.641 871.772,593.307 875.5,581.5C 875,581.167 874.5,580.833 874,580.5C 787.073,606.182 698.24,618.849 607.5,618.5C 510.78,617.779 415.613,605.446 322,581.5C 321.5,581.667 321,581.833 320.5,582C 324.664,593.479 330.497,603.979 338,613.5C 339.129,615.141 340.629,616.141 342.5,616.5C 347.683,623.173 354.016,628.673 361.5,633C 370.804,638.212 380.637,642.045 391,644.5C 400.001,637.92 409.501,632.253 419.5,627.5C 440.31,620.861 461.644,618.695 483.5,621C 501.605,623.647 518.938,628.813 535.5,636.5C 556.946,647.775 574.112,663.775 587,684.5C 598.073,703.363 602.573,723.696 600.5,745.5C 557.497,744.75 514.664,741.75 472,736.5C 470.743,736.85 470.409,737.517 471,738.5C 488.105,766.949 508.271,793.116 531.5,817C 475.088,829.974 426.921,815.474 387,773.5C 368.248,751.243 359.915,725.577 362,696.5C 324.725,682.131 296.558,657.464 277.5,622.5C 277.5,621.833 277.167,621.5 276.5,621.5C 271.457,609.404 266.957,597.071 263,584.5C 260.769,577.644 259.269,570.644 258.5,563.5C 232.713,555.96 207.38,547.127 182.5,537C 179.447,535.928 177.447,536.928 176.5,540C 183.316,557.794 189.982,575.627 196.5,593.5C 196.5,594.167 196.833,594.5 197.5,594.5C 212.252,637.926 225.086,681.926 236,726.5C 238.884,738.016 239.884,749.682 239,761.5C 238.31,765.19 236.143,766.357 232.5,765C 228.6,763.435 224.934,761.435 221.5,759C 207.395,746.897 193.895,734.064 181,720.5C 146.063,682.242 113.397,642.242 83,600.5C 48.4403,537.238 61.2736,486.071 121.5,447C 125.082,445.625 128.415,443.958 131.5,442C 121.463,426.764 111.297,411.597 101,396.5C 97.9841,386.367 101.151,378.867 110.5,374C 128.869,371.19 147.035,367.69 165,363.5C 167.223,360.221 169.057,356.721 170.5,353C 162.862,335.558 155.362,318.058 148,300.5C 146.317,287.527 151.984,280.527 165,279.5C 182.148,280.765 199.314,281.265 216.5,281C 219.531,277.77 222.197,274.27 224.5,270.5C 220.354,253.915 216.521,237.249 213,220.5C 210.108,207.241 215.275,199.907 228.5,198.5C 246.256,202.022 263.922,206.022 281.5,210.5C 285.229,208.209 288.729,205.543 292,202.5C 292.167,200.333 292.333,198.167 292.5,196C 291.456,178.506 290.956,161.006 291,143.5C 293.697,134.233 299.864,130.066 309.5,131C 326.627,138.543 343.627,146.376 360.5,154.5C 364.75,152.794 368.583,150.461 372,147.5C 374.907,128.817 377.907,110.15 381,91.5C 386.134,81.2568 393.968,78.4235 404.5,83C 419.085,94.2055 433.918,105.039 449,115.5C 452.76,114.358 456.427,113.025 460,111.5C 466.333,93.8333 472.667,76.1667 479,58.5C 485.157,50.0781 492.99,48.2448 502.5,53C 515.368,67.5317 528.535,81.6983 542,95.5C 545.842,94.9319 549.675,94.2652 553.5,93.5C 562.667,77.8333 571.833,62.1667 581,46.5C 589.323,37.6698 597.99,37.3365 607,45.5C 616.248,61.6651 625.748,77.6651 635.5,93.5C 639.325,94.2652 643.158,94.9319 647,95.5C 659.609,81.7942 672.109,67.9609 684.5,54C 690.424,50.1574 696.757,49.4907 703.5,52C 706.04,54.2047 708.207,56.7047 710,59.5C 716.137,76.91 722.47,94.2433 729,111.5C 732.573,113.025 736.24,114.358 740,115.5C 754.438,105.4 768.604,94.8999 782.5,84C 790.629,79.0726 798.129,79.906 805,86.5C 806.275,88.7173 807.275,91.0506 808,93.5C 810.892,111.852 813.892,130.185 817,148.5C 820.683,150.507 824.349,152.507 828,154.5C 843.894,147.136 859.727,139.636 875.5,132C 888.372,128.855 896.039,133.855 898.5,147C 896.979,165.808 896.645,184.641 897.5,203.5C 900.305,206.647 903.639,208.98 907.5,210.5C 925.14,206.007 942.807,201.673 960.5,197.5C 972.786,199.721 977.953,207.054 976,219.5C 972.088,236.315 968.254,253.149 964.5,270C 966.266,273.689 968.433,277.189 971,280.5C 974.583,281.149 978.25,281.483 982,281.5C 996.013,281 1010.01,280.333 1024,279.5C 1037.45,281.379 1042.78,289.046 1040,302.5C 1032.69,319.434 1025.19,336.267 1017.5,353C 1019.93,357.209 1022.6,361.209 1025.5,365C 1042.87,367.785 1060.21,370.785 1077.5,374C 1087.07,377.987 1090.57,385.153 1088,395.5C 1078.54,410.26 1068.7,424.76 1058.5,439C 1120.83,470.629 1139,519.129 1113,584.5C 1085.01,637.17 1054.01,687.836 1020,736.5C 1011.52,748.311 1001.69,758.811 990.5,768C 987.975,768.896 985.808,768.396 984,766.5C 982.374,760.62 981.541,754.62 981.5,748.5C 984.792,704.788 990.792,661.454 999.5,618.5 Z M 856.5,613.5 C 846.183,626.176 833.183,635.176 817.5,640.5C 806.887,633.526 795.554,628.192 783.5,624.5C 807.949,621.592 832.282,617.925 856.5,613.5 Z M 342.5,616.5 C 367.956,621.375 393.622,625.041 419.5,627.5C 409.501,632.253 400.001,637.92 391,644.5C 380.637,642.045 370.804,638.212 361.5,633C 354.016,628.673 347.683,623.173 342.5,616.5 Z"/></g>
<g><path style="opacity:1" fill="#020000" d="M 682.5,408.5 C 674.911,420.048 672.411,432.715 675,446.5C 677.43,458.909 684.263,467.742 695.5,473C 710.155,474.701 719.988,468.535 725,454.5C 732.194,435.618 729.027,418.785 715.5,404C 710.147,400.092 704.147,398.592 697.5,399.5C 720.129,389.257 741.129,392.091 760.5,408C 769.27,416.031 775.103,425.865 778,437.5C 785.184,456.641 787.184,476.308 784,496.5C 780.874,509.609 773.707,519.776 762.5,527C 745.292,538.736 726.292,544.403 705.5,544C 694.346,541.839 684.846,536.672 677,528.5C 653.736,503.086 648.07,474.086 660,441.5C 663.846,432.308 668.346,423.474 673.5,415C 676.397,412.59 679.397,410.423 682.5,408.5 Z"/></g>
<g><path style="opacity:1" fill="#020000" d="M 444.5,425.5 C 440.951,441.665 444.285,456.165 454.5,469C 462.087,475.649 470.754,477.316 480.5,474C 491.565,466.909 497.731,456.742 499,443.5C 501.093,426.535 495.593,412.702 482.5,402C 477.047,399.882 471.38,399.048 465.5,399.5C 486.135,392.719 506.802,392.886 527.5,400C 545.045,409.534 556.545,424.034 562,443.5C 567.921,467.413 566.255,490.746 557,513.5C 547.679,530.423 533.512,540.923 514.5,545C 503.012,548.654 491.679,548.321 480.5,544C 439.185,527.203 423.352,497.036 433,453.5C 435.98,443.704 439.814,434.37 444.5,425.5 Z"/></g>
<g><path style="opacity:1" fill="#fdfcfc" d="M 465.5,399.5 C 471.38,399.048 477.047,399.882 482.5,402C 495.593,412.702 501.093,426.535 499,443.5C 497.731,456.742 491.565,466.909 480.5,474C 470.754,477.316 462.087,475.649 454.5,469C 444.285,456.165 440.951,441.665 444.5,425.5C 446.706,417.416 450.706,410.416 456.5,404.5C 458.537,403.154 460.537,401.82 462.5,400.5C 463.391,399.89 464.391,399.557 465.5,399.5 Z"/></g>
<g><path style="opacity:1" fill="#fcfcfc" d="M 697.5,399.5 C 704.147,398.592 710.147,400.092 715.5,404C 729.027,418.785 732.194,435.618 725,454.5C 719.988,468.535 710.155,474.701 695.5,473C 684.263,467.742 677.43,458.909 675,446.5C 672.411,432.715 674.911,420.048 682.5,408.5C 686.374,403.725 691.374,400.725 697.5,399.5 Z"/></g>
<g><path style="opacity:1" fill="#3a1f19" d="M 462.5,400.5 C 460.537,401.82 458.537,403.154 456.5,404.5C 457.392,401.708 459.392,400.375 462.5,400.5 Z"/></g>
<g><path style="opacity:0.986" fill="#8e1e19" d="M 999.5,618.5 C 982.038,637.462 964.038,655.962 945.5,674C 940.514,678.161 935.181,681.827 929.5,685C 927.833,685.667 926.167,685.667 924.5,685C 923.285,675.081 924.118,665.248 927,655.5C 932.493,634.02 938.993,612.854 946.5,592C 946.167,591.5 945.833,591 945.5,590.5C 940.154,592.171 934.821,593.838 929.5,595.5C 933.301,583.298 936.634,570.965 939.5,558.5C 959.853,550.491 979.853,541.658 999.5,532C 1006.63,527.786 1012.63,528.953 1017.5,535.5C 1011.02,563.077 1005.02,590.744 999.5,618.5 Z"/></g>
<g><path style="opacity:0.986" fill="#8e1e19" d="M 276.5,621.5 C 277.167,621.5 277.5,621.833 277.5,622.5C 282.115,639.907 285.448,657.574 287.5,675.5C 287.458,678.259 286.958,680.925 286,683.5C 284.612,684.554 283.112,684.72 281.5,684C 271.161,676.898 261.661,668.732 253,659.5C 233.886,638.23 215.386,616.563 197.5,594.5C 196.833,594.5 196.5,594.167 196.5,593.5C 189.982,575.627 183.316,557.794 176.5,540C 177.447,536.928 179.447,535.928 182.5,537C 207.38,547.127 232.713,555.96 258.5,563.5C 259.269,570.644 260.769,577.644 263,584.5C 266.957,597.071 271.457,609.404 276.5,621.5 Z"/></g>
<g><path style="opacity:0.989" fill="#8e1e19" d="M 857.5,612.5 C 856.833,612.5 856.5,612.833 856.5,613.5C 832.282,617.925 807.949,621.592 783.5,624.5C 767.293,621.66 750.959,620.827 734.5,622C 719.732,624.253 705.399,628.086 691.5,633.5C 639.555,636.757 587.555,637.757 535.5,636.5C 518.938,628.813 501.605,623.647 483.5,621C 461.644,618.695 440.31,620.861 419.5,627.5C 393.622,625.041 367.956,621.375 342.5,616.5C 340.629,616.141 339.129,615.141 338,613.5C 330.497,603.979 324.664,593.479 320.5,582C 321,581.833 321.5,581.667 322,581.5C 415.613,605.446 510.78,617.779 607.5,618.5C 698.24,618.849 787.073,606.182 874,580.5C 874.5,580.833 875,581.167 875.5,581.5C 871.772,593.307 865.772,603.641 857.5,612.5 Z"/></g>
</svg>
